# xmcd CD database file
#
# Track frame offsets:
#	150
#	13510
#	34200
#
# Disc length: 631 seconds
#
# Revision: 0
# Processed by: cddbd v1.5PL3 Copyright (c) Steve Scherf et al.
# Submitted via: CDex 1.50beta9
#
DISCID=1a027503
DTITLE=ミニモニ。 - ラッキーチャチャチャ！
DYEAR=2004
DGENRE=JPop
TTITLE0=ラッキーチャチャチャ！
TTITLE1=笑顔のデート 最後のデート
TTITLE2=ラッキーチャチャチャ！（オリジナル・カラオケ）
EXTD=YEAR: 2004
EXTT0=
EXTT1=
EXTT2=
PLAYORDER=
